<?xml version="1.0" encoding="UTF-8" standalone="no"?>
<svg
   viewBox="0 0 512 512"
   version="1.1"
   id="svg12"
   sodipodi:docname="logo.svg.svg"
   inkscape:version="1.2.1 (9c6d41e410, 2022-07-14)"
   xmlns:inkscape="http://www.inkscape.org/namespaces/inkscape"
   xmlns:sodipodi="http://sodipodi.sourceforge.net/DTD/sodipodi-0.dtd"
   xmlns="http://www.w3.org/2000/svg"
   xmlns:svg="http://www.w3.org/2000/svg">
  <defs
     id="defs16" />
  <sodipodi:namedview
     id="namedview14"
     pagecolor="#ffffff"
     bordercolor="#000000"
     borderopacity="0.25"
     inkscape:showpageshadow="2"
     inkscape:pageopacity="0.0"
     inkscape:pagecheckerboard="0"
     inkscape:deskcolor="#d1d1d1"
     showgrid="false"
     inkscape:zoom="1.6347656"
     inkscape:cx="256.30585"
     inkscape:cy="256.30585"
     inkscape:window-width="1920"
     inkscape:window-height="1017"
     inkscape:window-x="-8"
     inkscape:window-y="-8"
     inkscape:window-maximized="1"
     inkscape:current-layer="svg12" />
  <!--! Font Awesome Pro 6.1.2 by @fontawesome - https://fontawesome.com License - https://fontawesome.com/license (Commercial License) Copyright 2022 Fonticons, Inc. -->
  <path
     d="M502.7 39.02L473 9.37c-12.5-12.5-32.74-12.49-45.24 .0106l-46.24 46.37c-3.875 3.875-6.848 8.506-8.598 13.76l-12.19 36.51L284.5 182.3C272.4 173.5 259 166.5 244.4 163.1C211 155.4 177.4 162.3 154.5 185.1C145.3 194.5 138.3 206 134.3 218.6C128.3 237.1 111.1 251.3 92.14 253C68.52 255.4 46.39 264.5 29.52 281.5c-45.62 45.5-37.38 127.5 18.12 183c55.37 55.38 137.4 63.51 182.9 18c16.1-16.88 26.25-38.85 28.5-62.72c1.75-18.75 15.84-36.16 34.47-42.16c12.5-3.875 24.03-10.87 33.4-20.25c22.87-22.88 29.75-56.38 21.1-89.76c-3.375-14.63-10.39-27.99-19.14-40.11l76.25-76.26l36.53-12.17c5.125-1.75 9.894-4.715 13.77-8.59l46.36-46.29C515.2 71.72 515.2 51.52 502.7 39.02zM208 352c-26.5 0-48-21.5-48-48c0-26.5 21.5-48 48-48s47.1 21.5 47.1 48C256 330.5 234.5 352 208 352z"
     id="path10" />
  <path
     style="fill:#ffdd55;stroke-width:0.611708"
     d="M 145.28076,511.27601 C 112.54971,508.43372 78.90714,492.99058 52.944469,468.89033 24.371237,442.36679 6.3138831,408.76149 1.5245965,373.19633 0.21140388,363.44458 0.51378527,343.60119 2.0940306,335.82796 8.8794722,302.45032 26.975439,277.76831 54.747909,264.01065 c 11.611365,-5.75192 20.202181,-8.15086 40.37276,-11.27388 9.665701,-1.49655 18.682051,-6.02808 26.170261,-13.15292 6.39223,-6.08204 10.17481,-12.18603 13.89799,-22.42734 10.63904,-29.26467 32.53247,-48.19869 63.31048,-54.75259 4.23041,-0.90082 9.32443,-1.40409 16.51613,-1.63174 23.96509,-0.75857 43.63725,4.82914 63.86863,18.14134 l 5.75631,3.78764 38.13293,-38.12927 38.13293,-38.12927 6.20452,-18.65978 c 3.41248,-10.262877 7.15758,-20.586663 8.32245,-22.941741 1.92336,-3.888563 4.54272,-6.71722 28.51078,-30.788874 14.51606,-14.578803 27.55988,-27.3212485 28.98626,-28.3165457 6.5233,-4.5517971 16.41287,-6.41257628 24.25873,-4.5644141 8.29992,1.9551214 10.17215,3.3806372 29.34768,22.3452618 10.36139,10.247431 18.64611,18.96683 20.04248,21.09407 6.50346,9.907381 6.48269,23.433457 -0.051,33.168094 -1.37585,2.049927 -13.71973,14.831789 -28.89755,29.922879 -23.70608,23.57063 -26.94657,26.57353 -30.7777,28.52103 -2.35508,1.19717 -12.67885,4.96409 -22.94171,8.37094 l -18.65977,6.19426 -38.38351,38.38715 -38.38352,38.38714 3.45034,5.15356 c 12.5238,18.70605 19.19192,40.43658 19.18219,62.5122 -0.011,25.01364 -8.58563,46.09398 -25.52951,62.76342 -8.59315,8.45396 -18.73275,14.54714 -32.24349,19.37607 -7.80406,2.78928 -13.50152,6.23673 -19.107,11.5614 -9.06577,8.61158 -13.53908,17.69496 -15.53274,31.54033 -2.18675,15.18622 -5.11456,25.1174 -10.68836,36.25498 -11.92632,23.83123 -30.50261,40.16175 -55.48284,48.77531 -14.48824,4.99575 -31.83042,7.11585 -47.25236,5.77665 z m 77.87903,-161.38199 c 15.17288,-5.11357 26.76312,-17.37229 30.77296,-32.54778 1.76041,-6.66239 1.73454,-18.66572 -0.055,-25.56129 -4.57717,-17.63621 -17.80839,-30.80291 -35.03545,-34.86463 -5.71292,-1.34696 -16.91123,-1.20035 -22.77019,0.29812 -16.72256,4.27691 -29.88305,17.174 -34.68359,33.98941 -1.12558,3.94273 -1.38507,6.35869 -1.376,12.81127 0.0131,9.3767 0.89696,13.29204 4.83276,21.40979 5.66768,11.68985 15.90579,20.60181 27.99052,24.36489 6.94419,2.16236 7.02599,2.17209 16.67444,1.9825 7.49429,-0.14726 9.19912,-0.38236 13.64963,-1.88228 z"
     id="path329" />
  <path
     style="fill:#ffcc00;stroke-width:0.611708"
     d="m 141.91637,510.70263 c -1.17754,-0.1435 -5.76872,-0.94718 -10.20262,-1.78598 C 100.57137,503.0252 70.68642,486.5877 47.080921,462.3664 34.40983,449.36476 25.684449,437.48921 18.047027,422.85026 10.869208,409.09225 6.5860328,397.15436 3.2043393,381.48131 1.6000511,374.04596 1.538051,373.08336 1.5640334,356.01434 l 0.027003,-17.73955 2.2409002,-8.39382 c 8.4557914,-31.67316 26.1402444,-53.77512 53.2321714,-66.52935 8.110635,-3.81829 15.97835,-6.23747 26.836372,-8.25168 20.90464,-3.8779 25.68815,-5.61188 34.23389,-12.40942 7.96747,-6.33756 12.29039,-12.57511 17.06037,-24.61645 9.50499,-23.99437 21.52929,-37.73069 41.93055,-47.90062 12.36062,-6.16171 22.16722,-8.42957 38.1961,-8.83319 25.16492,-0.63368 42.40207,4.31862 64.22939,18.45332 l 5.19952,3.36706 38.24761,-38.22278 38.24761,-38.22278 4.18132,-12.678927 c 5.99909,-18.190963 10.03682,-28.785625 12.17506,-31.946347 1.02473,-1.514747 13.85985,-14.768525 28.5225,-29.452844 20.37298,-20.403099 27.39086,-27.0637134 29.76157,-28.2464597 9.95526,-4.96669016 22.3489,-4.49077651 30.74216,1.1804939 1.90841,1.2895028 11.47857,10.3355958 21.26703,20.1024288 16.4049,16.368673 17.97191,18.116784 20.0306,22.345691 4.19172,8.61047 4.1884,17.718271 -0.01,26.303465 -2.10804,4.311101 -3.81425,6.159115 -28.28884,30.639859 -14.325,14.32863 -27.55946,27.16588 -29.40988,28.52722 -3.80731,2.80101 -11.32413,5.75792 -31.50298,12.39237 l -13.45759,4.42463 -38.38471,38.31677 c -21.11159,21.07423 -38.3847,38.56774 -38.3847,38.87447 0,0.30673 1.67166,3.1382 3.7148,6.29215 7.70884,11.89995 13.76546,26.69003 16.5152,40.32963 2.04454,10.14158 2.34946,27.42911 0.65684,37.23994 -2.77162,16.06507 -9.07779,29.46555 -19.53772,41.51727 -9.20841,10.60974 -19.10896,17.22311 -35.61497,23.79013 -12.26402,4.87932 -19.08616,9.64794 -25.46412,17.79926 -5.92102,7.56731 -8.61786,14.77205 -10.90824,29.14184 -3.90099,24.47483 -12.80242,42.48343 -29.04682,58.76504 -14.02891,14.06104 -29.31306,22.06146 -50.79526,26.58855 -6.61707,1.39446 -9.41673,1.63765 -20.79809,1.80658 -7.23345,0.10738 -14.11517,0.0778 -15.29271,-0.0657 z m 82.65228,-161.04405 c 11.24102,-4.17806 20.70327,-12.535 25.84073,-22.8222 3.32687,-6.6617 4.41438,-10.58402 4.99301,-18.00822 1.8045,-23.15325 -10.35529,-42.7407 -31.51709,-50.76886 -4.44236,-1.68531 -4.94658,-1.7404 -15.90442,-1.7377 l -11.3166,0.003 -5.52653,2.15006 c -14.12707,5.49603 -24.80776,16.70535 -29.40816,30.86366 -1.9189,5.90565 -2.59113,15.99295 -1.52231,22.84323 2.35563,15.09772 13.59606,29.85444 27.38597,35.95299 7.62826,3.37358 10.7286,3.90223 21.61105,3.68495 9.60266,-0.19172 10.34937,-0.29673 15.36435,-2.1607 z"
     id="path400" />
</svg>
